<?xml version="1.0" encoding="UTF-8"?>
<!DOCTYPE svg PUBLIC "-//W3C//DTD SVG 1.1//EN" "http://www.w3.org/Graphics/SVG/1.1/DTD/svg11.dtd">
<!-- Creator: CorelDRAW 2018 (64-Bit) -->
<svg xmlns="http://www.w3.org/2000/svg" xml:space="preserve" width="1.83557in" height="1.83559in" version="1.1" style="shape-rendering:geometricPrecision; text-rendering:geometricPrecision; image-rendering:optimizeQuality; fill-rule:evenodd; clip-rule:evenodd"
viewBox="0 0 9817 9817"
 xmlns:xlink="http://www.w3.org/1999/xlink">
 <defs>
  <style type="text/css">
   <![CDATA[
    .fil1 {fill:#A8CF45}
    .fil0 {fill:#A8CF45;fill-rule:nonzero}
   ]]>
  </style>
 </defs>
 <g id="Layer_x0020_1">
  <metadata id="CorelCorpID_0Corel-Layer"/>
  <path class="fil0" d="M4908 0c1355,0 2583,549 3471,1438 888,888 1438,2115 1438,3471 0,1355 -549,2583 -1438,3471 -888,888 -2115,1438 -3471,1438 -1355,0 -2583,-549 -3471,-1438 -888,-888 -1438,-2115 -1438,-3471 0,-1355 549,-2583 1438,-3471 888,-888 2115,-1438 3471,-1438l0 0zm3083 1826c-789,-789 -1879,-1277 -3083,-1277 -1204,0 -2294,488 -3083,1277 -789,789 -1277,1879 -1277,3083 0,1204 488,2294 1277,3083 789,789 1879,1277 3083,1277 1204,0 2294,-488 3083,-1277 789,-789 1277,-1879 1277,-3083 0,-1204 -488,-2294 -1277,-3083l0 0z"/>
  <path class="fil1" d="M2492 1840l-104 210 148 73 -5 0 0 2152 13 -25 103 -203 105 203c4,9 9,17 13,26l0 -2039 2810 1387c-2,17 -3,33 -3,51 0,224 179,403 403,403 111,0 211,-44 284,-116l1082 534 -349 418 730 1678 331 0 0 -1455 -455 -545 91 -184 -1320 -652c5,-26 8,-53 8,-81 0,-224 -179,-403 -403,-403 -122,0 -231,53 -305,138l-3178 -1569 0 0zm2999 2246l-429 723 -334 0 0 234 195 0 -1386 2334 -1304 -1 0 234 1592 2 57 0 4172 5 0 -234 -241 0 -1409 -3239c-113,104 -264,167 -429,167 -40,0 -79,-4 -117,-11l0 510 -312 0 304 -512c-142,-29 -267,-105 -358,-211l0 0zm601 383l148 341 -148 0 0 -341 0 0zm-3444 93c-137,271 -283,544 -477,785 179,245 343,350 480,351 137,1 298,-100 474,-349 -206,-250 -345,-522 -477,-787l0 0zm2758 481l451 0 0 2336 -1838 -2 1386 -2334zm685 0l250 0 465 1068 0 478 208 0 345 792 -1267 -1 0 -2337z"/>
 </g>
</svg>
